/* XPM */
static char * helium32_xpm[] = {
"32 32 159 2",
"  	c None",
". 	c #3EB7F3",
"+ 	c #7DD1F6",
"@ 	c #70CCF6",
"# 	c #7CD1F7",
"$ 	c #9ADDF9",
"% 	c #AFE6FA",
"& 	c #AEE5F9",
"* 	c #A1E0F8",
"= 	c #89D6F7",
"- 	c #66C8F5",
"; 	c #1BA8F1",
"> 	c #58C1F4",
", 	c #79D0F6",
"' 	c #88D5F7",
") 	c #A0DFF9",
"! 	c #BAEAFA",
"~ 	c #A4E1F9",
"{ 	c #80D2F6",
"] 	c #69C9F5",
"^ 	c #63C6F5",
"/ 	c #69C8F5",
"( 	c #7CD1F6",
"_ 	c #9DDEF8",
": 	c #CCF2FB",
"< 	c #98DCF8",
"[ 	c #25ACF2",
"} 	c #83D3F7",
"| 	c #7DD1F7",
"1 	c #B7E9FA",
"2 	c #A6E2F8",
"3 	c #48BCF3",
"4 	c #1CA8F1",
"5 	c #17A7F1",
"6 	c #50BEF4",
"7 	c #A3E0F8",
"8 	c #73CDF6",
"9 	c #39B4F3",
"0 	c #86D5F7",
"a 	c #85D4F7",
"b 	c #45BAF4",
"c 	c #58C2F4",
"d 	c #A3E1F8",
"e 	c #26ADF2",
"f 	c #33B2F3",
"g 	c #97DCF8",
"h 	c #1FAAF2",
"i 	c #31B1F2",
"j 	c #C5EFFA",
"k 	c #36B3F3",
"l 	c #8AD6F7",
"m 	c #91D9F8",
"n 	c #3BB5F3",
"o 	c #D9F7FB",
"p 	c #30B1F2",
"q 	c #7ACFF6",
"r 	c #83D4F7",
"s 	c #6FCBF5",
"t 	c #C0EDFA",
"u 	c #96DCF8",
"v 	c #32B2F2",
"w 	c #79D0F7",
"x 	c #7BD0F7",
"y 	c #78CFF6",
"z 	c #6AC9F5",
"A 	c #B3E7FA",
"B 	c #25ADF2",
"C 	c #99DDF8",
"D 	c #9CDEF8",
"E 	c #18A7F1",
"F 	c #8BD7F7",
"G 	c #A5E1F9",
"H 	c #B0E5F9",
"I 	c #75CEF6",
"J 	c #7CD0F6",
"K 	c #A8E3F9",
"L 	c #27AEF2",
"M 	c #77CEF6",
"N 	c #50BFF4",
"O 	c #FF0000",
"P 	c #95DCF8",
"Q 	c #57C1F5",
"R 	c #77CFF6",
"S 	c #B2E7FA",
"T 	c #FE0000",
"U 	c #71CCF5",
"V 	c #92DAF8",
"W 	c #6DCAF6",
"X 	c #B6E9FA",
"Y 	c #2CAFF2",
"Z 	c #76CEF6",
"` 	c #85D4F8",
" .	c #74CDF6",
"..	c #B4E8FA",
"+.	c #39B5F3",
"@.	c #7ED1F6",
"#.	c #81D3F7",
"$.	c #67C8F5",
"%.	c #4BBCF4",
"&.	c #C3EEFA",
"*.	c #59C2F5",
"=.	c #A0DFF8",
"-.	c #4ABCF4",
";.	c #84D4F7",
">.	c #B2E7F9",
",.	c #1DA9F1",
"'.	c #B1E7F9",
").	c #65C7F5",
"!.	c #8DD8F8",
"~.	c #3CB6F3",
"{.	c #C1EDFA",
"].	c #8ED8F8",
"^.	c #62C6F5",
"/.	c #61C5F5",
"(.	c #9DDEF9",
"_.	c #7ED2F7",
":.	c #20AAF1",
"<.	c #A6E2F9",
"[.	c #6FCCF6",
"}.	c #2FB0F3",
"|.	c #51BFF4",
"1.	c #40B7F3",
"2.	c #CAF1FB",
"3.	c #66C7F5",
"4.	c #21ABF2",
"5.	c #C9F0FA",
"6.	c #5EC4F5",
"7.	c #41B8F3",
"8.	c #E2FBFC",
"9.	c #8BD6F7",
"0.	c #31B2F2",
"a.	c #57C1F4",
"b.	c #80D3F6",
"c.	c #2DB0F2",
"d.	c #B9EAF9",
"e.	c #B7E9F9",
"f.	c #5DC4F5",
"g.	c #79CFF6",
"h.	c #6CCBF6",
"i.	c #AAE4F9",
"j.	c #16A6F1",
"k.	c #13A5F1",
"l.	c #55C0F4",
"m.	c #7FD2F7",
"n.	c #57C2F4",
"o.	c #1AA8F2",
"p.	c #75CEF5",
"q.	c #D2F4FB",
"r.	c #B4E8F9",
"s.	c #BBEBFA",
"t.	c #B3E7F9",
"u.	c #A5E2F9",
"v.	c #87D5F8",
"w.	c #71CCF6",
"x.	c #72CCF5",
"y.	c #1CA9F1",
"z.	c #6FCBF6",
"A.	c #82D3F7",
"B.	c #38B5F3",
"                                                                ",
"                                                                ",
"                    . + @ # $ % & * = - ;                       ",
"                > , ' ) ! ~ { ] ^ / ( _ : < [                   ",
"              } | 1 2 3 4               5 6 7 8                 ",
"          9 0 a & b                           c d e             ",
"        f 0 g a h                               i j k           ",
"        l m +                                     n o p         ",
"      q r =                                         s t         ",
"    p _ u v                                           * 0       ",
"    w x y                                             z A B     ",
"    C D e                                             E < F     ",
"  b G 8                                                 @ H     ",
"  8 | I                                                 J K L   ",
"  M C N       O                                         y P Q   ",
"  R S v       O O     T                       O         U V W   ",
"  I X Y       O   O O   O     O         O   O   O       Z ` 8   ",
"   ...+.      O   O O         O   O     O   O   O       @.#.$.  ",
"  %.&.*.              O                                  .=.-.  ",
"    & =                                                 ;.>.,.  ",
"    , '.                                              ).!.R     ",
"    ~.{.-.                                            ;.].^.    ",
"      + g                                           /.(._.      ",
"      :.<.[.                                      }.! I |.      ",
"        1.2.3.                                  4.5.6.Z         ",
"          7.8.9.5                             0.&.a.b.          ",
"            c.d.e.f.                        y D *.g.            ",
"                h.i.u 8 b j.        k.7.= ' l.m.n.              ",
"                  o.p.* q.5.r.d.s.t.u.v.w.g.x.y.                ",
"                        v z.;.A.y 8 g.y B.                      ",
"                                                                ",
"                                                                "};
