/* XPM */
static char * helium64_xpm[] = {
"64 64 386 2",
"  	c None",
". 	c #23ABF2",
"+ 	c #1FAAF2",
"@ 	c #1DA9F1",
"# 	c #1AA8F1",
"$ 	c #19A8F1",
"% 	c #1CA9F1",
"& 	c #1EAAF2",
"* 	c #22ABF1",
"= 	c #25ADF2",
"- 	c #1FAAF1",
"; 	c #21ABF2",
"> 	c #4DBDF4",
", 	c #7ED1F6",
"' 	c #A3E1F8",
") 	c #BBEBFA",
"! 	c #BEECFA",
"~ 	c #C5EFFB",
"{ 	c #C9F0FB",
"] 	c #BDEBF9",
"^ 	c #A8E3F9",
"/ 	c #86D4F7",
"( 	c #56C1F4",
"_ 	c #26ADF2",
": 	c #25ACF2",
"< 	c #27ADF2",
"[ 	c #74CDF5",
"} 	c #B6E8F9",
"| 	c #C0EDFA",
"1 	c #93DAF7",
"2 	c #5EC4F5",
"3 	c #46BBF4",
"4 	c #50BFF5",
"5 	c #68C9F6",
"6 	c #7DD1F7",
"7 	c #8BD7F8",
"8 	c #96DBF8",
"9 	c #97DCF8",
"0 	c #92DAF8",
"a 	c #98DCF8",
"b 	c #A7E2F9",
"c 	c #BCEBFA",
"d 	c #CEF2FB",
"e 	c #B9EAF9",
"f 	c #7FD1F6",
"g 	c #32B2F2",
"h 	c #20AAF2",
"i 	c #3FB7F3",
"j 	c #C1EDFA",
"k 	c #71CCF6",
"l 	c #30B2F3",
"m 	c #60C5F5",
"n 	c #9FDFF8",
"o 	c #D6F6FB",
"p 	c #F6FFFD",
"q 	c #F5FFFD",
"r 	c #D8F6FB",
"s 	c #B8E9FA",
"t 	c #A0E0F8",
"u 	c #93DAF8",
"v 	c #8DD8F8",
"w 	c #8ED8F8",
"x 	c #95DBF8",
"y 	c #A5E1F8",
"z 	c #E4FBFB",
"A 	c #EBFEFC",
"B 	c #F0FFFC",
"C 	c #B1E7F9",
"D 	c #53C0F4",
"E 	c #23ACF2",
"F 	c #39B5F3",
"G 	c #AFE5F9",
"H 	c #B0E6F9",
"I 	c #3FB8F3",
"J 	c #50BFF4",
"K 	c #AAE4F9",
"L 	c #F6FFFC",
"M 	c #CAF1FB",
"N 	c #8DD8F7",
"O 	c #59C2F4",
"P 	c #2EB0F2",
"Q 	c #25ACF1",
"R 	c #28ADF2",
"S 	c #28AEF2",
"T 	c #26AEF2",
"U 	c #24ACF1",
"V 	c #30B1F3",
"W 	c #5CC4F5",
"X 	c #D1F4FB",
"Y 	c #F8FFFD",
"Z 	c #4EBEF4",
"` 	c #8CD7F7",
" .	c #BFECFA",
"..	c #3EB7F3",
"+.	c #62C6F5",
"@.	c #C6EFFA",
"#.	c #E6FCFC",
"$.	c #E0FAFC",
"%.	c #92DAF7",
"&.	c #43BAF3",
"*.	c #26ADF1",
"=.	c #2AAEF2",
"-.	c #4BBCF4",
";.	c #9EDFF8",
">.	c #2CAFF2",
",.	c #C7F0FA",
"'.	c #6CCAF6",
").	c #44B9F4",
"!.	c #C2EDFA",
"~.	c #C5EFFA",
"{.	c #D3F5FB",
"].	c #82D4F7",
"^.	c #2CB0F2",
"/.	c #2AAFF2",
"(.	c #31B2F3",
"_.	c #94DBF8",
":.	c #E4FBFC",
"<.	c #64C7F5",
"[.	c #1EAAF1",
"}.	c #22ACF2",
"|.	c #5CC3F5",
"1.	c #C8EFFA",
"2.	c #35B4F3",
"3.	c #BAEAFA",
"4.	c #9DDEF8",
"5.	c #2BAFF2",
"6.	c #24ACF2",
"7.	c #3CB6F3",
"8.	c #C3EEFA",
"9.	c #B3E7F9",
"0.	c #2DB0F2",
"a.	c #20ABF2",
"b.	c #33B3F3",
"c.	c #C9F0FA",
"d.	c #4FBEF4",
"e.	c #29AEF2",
"f.	c #8DD7F7",
"g.	c #51BFF4",
"h.	c #77CEF6",
"i.	c #A1E0F9",
"j.	c #42B9F4",
"k.	c #82D3F7",
"l.	c #B7E9F9",
"m.	c #73CDF6",
"n.	c #F4FFFC",
"o.	c #72CCF6",
"p.	c #AAE4F8",
"q.	c #47BBF5",
"r.	c #86D5F7",
"s.	c #9BDEF8",
"t.	c #27AEF2",
"u.	c #84D4F7",
"v.	c #44B9F3",
"w.	c #44BAF4",
"x.	c #C2EEFA",
"y.	c #81D3F7",
"z.	c #95DBF7",
"A.	c #F3FFFC",
"B.	c #CDF1FA",
"C.	c #3CB6F4",
"D.	c #CBF2FB",
"E.	c #C0ECFA",
"F.	c #6DCAF6",
"G.	c #A6E2F8",
"H.	c #54C0F5",
"I.	c #CAF0FA",
"J.	c #BFECF9",
"K.	c #33B3F2",
"L.	c #E2FBFC",
"M.	c #EAFDFC",
"N.	c #48BBF4",
"O.	c #50BEF4",
"P.	c #A7E2F8",
"Q.	c #94DAF8",
"R.	c #62C6F6",
"S.	c #CDF2FB",
"T.	c #75CEF6",
"U.	c #C8F0FA",
"V.	c #DDF8FB",
"W.	c #C4EFFA",
"X.	c #4DBEF4",
"Y.	c #5DC4F5",
"Z.	c #1EA9F1",
"`.	c #C4EEFA",
" +	c #B4E8FA",
".+	c #9CDDF8",
"++	c #21ABF1",
"@+	c #5FC5F4",
"#+	c #4EBDF5",
"$+	c #B2E7F9",
"%+	c #5DC4F4",
"&+	c #49BBF4",
"*+	c #1DAAF1",
"=+	c #60C5F6",
"-+	c #3BB6F3",
";+	c #8AD6F7",
">+	c #42B9F3",
",+	c #A2E1F9",
"'+	c #A4E1F8",
")+	c #75CDF6",
"!+	c #77CFF6",
"~+	c #F2FFFD",
"{+	c #9ADDF8",
"]+	c #65C8F5",
"^+	c #A5E2F8",
"/+	c #ACE4F9",
"(+	c #99DCF8",
"_+	c #ADE5F9",
":+	c #90D9F8",
"<+	c #52BFF4",
"[+	c #53C0F5",
"}+	c #31B1F2",
"|+	c #3AB5F3",
"1+	c #A3E0F8",
"2+	c #6ECBF6",
"3+	c #76CEF6",
"4+	c #66C8F6",
"5+	c #DCF8FB",
"6+	c #78CFF6",
"7+	c #73CCF6",
"8+	c #7ED2F7",
"9+	c #3CB7F3",
"0+	c #9FDFF9",
"a+	c #B5E8F9",
"b+	c #A1E0F8",
"c+	c #83D3F7",
"d+	c #1EA9F2",
"e+	c #68C8F5",
"f+	c #EAFEFC",
"g+	c #63C6F6",
"h+	c #A0DFF8",
"i+	c #F9FFFD",
"j+	c #49BCF4",
"k+	c #1BA8F1",
"l+	c #ADE5FA",
"m+	c #70CBF6",
"n+	c #79D0F6",
"o+	c #FF0000",
"p+	c #B4E7F9",
"q+	c #1DAAF2",
"r+	c #59C2F5",
"s+	c #FE0000",
"t+	c #22ABF2",
"u+	c #A2E0F8",
"v+	c #39B6F4",
"w+	c #E5FCFC",
"x+	c #8DD7F8",
"y+	c #41B8F3",
"z+	c #9CDEF7",
"A+	c #DCF8FC",
"B+	c #A7E3F9",
"C+	c #36B3F3",
"D+	c #9CDDF7",
"E+	c #43BAF4",
"F+	c #DDF9FB",
"G+	c #AEE5F9",
"H+	c #BCEBF9",
"I+	c #AFE6F9",
"J+	c #33B2F2",
"K+	c #3BB6F4",
"L+	c #D6F5FB",
"M+	c #B4E8F9",
"N+	c #23ACF1",
"O+	c #1BA9F2",
"P+	c #ADE5F8",
"Q+	c #B1E6F9",
"R+	c #BDECFA",
"S+	c #A8E2F9",
"T+	c #40B7F3",
"U+	c #31B1F3",
"V+	c #A5E1F9",
"W+	c #C5EEFA",
"X+	c #57C1F4",
"Y+	c #1BA8F2",
"Z+	c #80D2F6",
"`+	c #74CEF6",
" @	c #7FD2F7",
".@	c #A6E2F9",
"+@	c #47BBF4",
"@@	c #B3E8F9",
"#@	c #9BDDF8",
"$@	c #B9E9F9",
"%@	c #20ABF1",
"&@	c #3DB6F4",
"*@	c #AAE3F8",
"=@	c #F1FFFC",
"-@	c #98DDF8",
";@	c #69C8F5",
">@	c #5FC4F5",
",@	c #69C9F6",
"'@	c #81D3F6",
")@	c #C7EFFA",
"!@	c #B6E8FA",
"~@	c #4CBDF4",
"{@	c #B2E6F9",
"]@	c #37B5F3",
"^@	c #25ADF1",
"/@	c #7AD0F6",
"(@	c #8AD7F8",
"_@	c #39B4F3",
":@	c #61C6F6",
"<@	c #A5E2F9",
"[@	c #58C2F4",
"}@	c #70CCF5",
"|@	c #E7FCFC",
"1@	c #34B3F3",
"2@	c #54C0F4",
"3@	c #35B3F3",
"4@	c #79CFF7",
"5@	c #CAF1FA",
"6@	c #65C7F6",
"7@	c #29AFF2",
"8@	c #38B4F3",
"9@	c #65C7F5",
"0@	c #A9E3F9",
"a@	c #69C9F5",
"b@	c #D9F7FB",
"c@	c #6AC9F5",
"d@	c #CDF3FA",
"e@	c #30B1F2",
"f@	c #21AAF2",
"g@	c #4CBCF4",
"h@	c #CBF1FA",
"i@	c #24ADF2",
"j@	c #B5E9F9",
"k@	c #53BFF4",
"l@	c #45B9F4",
"m@	c #D0F3FB",
"n@	c #91D9F7",
"o@	c #7CD0F6",
"p@	c #E9FEFC",
"q@	c #ECFFFC",
"r@	c #68C8F6",
"s@	c #96DBF7",
"t@	c #8BD7F7",
"u@	c #63C6F5",
"v@	c #E9FDFC",
"w@	c #E3FBFC",
"x@	c #D2F3FB",
"y@	c #ACE5F9",
"z@	c #82D3F6",
"A@	c #DBF8FB",
"B@	c #40B8F3",
"C@	c #DFF9FC",
"D@	c #C2EEF9",
"E@	c #D2F4FA",
"F@	c #37B4F3",
"G@	c #8FD8F7",
"H@	c #36B3F2",
"I@	c #25AEF2",
"J@	c #DAF8FB",
"K@	c #91D9F8",
"L@	c #3EB6F3",
"M@	c #1DA9F2",
"N@	c #3DB7F3",
"O@	c #90D9F7",
"P@	c #33B2F3",
"Q@	c #27ADF1",
"R@	c #2AAFF3",
"S@	c #7FD2F6",
"T@	c #E2FAFB",
"U@	c #CBF1FB",
"V@	c #BAEAF9",
"W@	c #83D4F7",
"X@	c #7DD1F6",
"Y@	c #8ED7F7",
"Z@	c #23ADF1",
"`@	c #35B3F2",
" #	c #2BB0F2",
".#	c #F4FFFD",
"+#	c #F1FFFD",
"@#	c #ECFEFC",
"##	c #88D5F7",
"$#	c #27AEF3",
"%#	c #85D5F7",
"&#	c #61C5F5",
"*#	c #61C6F5",
"=#	c #D4F5FB",
"-#	c #CCF2FB",
";#	c #B6E9F9",
">#	c #8FD9F8",
",#	c #88D6F7",
"'#	c #4ABCF4",
")#	c #59C3F5",
"!#	c #63C7F5",
"~#	c #59C3F4",
"                                                                                                                                ",
"                                                                                                                                ",
"                                                                                                                                ",
"                                                    . + @ # $ # % & * =                                                         ",
"                                            - ; > , ' ) ! ~ { ~ ! ] ^ / ( _ & :                                                 ",
"                                      ; < [ } | 1 2 3 4 5 6 7 8 9 0 a b c d e f g +                                             ",
"                                  h i b j k l m n o p q r s t u v w x y ! r z A B C D @                                         ",
"                              E F G H I J K A L M N O P Q _ R S R R < T U E V W u X Y | Z +                                     ",
"                            h `  ...+.@.#.$.%.&.*.=.S                         _ _ . -.;.B b >.=                                 ",
"                        = F ,.'.).!.~.{.].^./.R                                       E (._.:.<.[.                              ",
"                      }.|.1.2._.3. .4.P 5.                                                6.7.8.9.0._                           ",
"                    a.[ H b.,.N c.d.e.<                                                       ; f.#.g.E                         ",
"                  ; h.i.j.c.k.l.P /.                                                            ; m.n.o.+                       ",
"                6.<.p.q.!.r.s.t.S                                                                 ; h.p u.+                     ",
"                v.j w.x.y.%.<                                                                       h z.A.k.h                   ",
"              : B.C.D.'.n <                                                                           h E.B F.6.                ",
"            h G.H.I.H.J.t.                                                                              K.L.M.N._               ",
"            O.P.Q.R.S.g S                                                                               : T.U.V.t.              ",
"          @ W.X.G a Y./.                                                                                  Z.`. +.+++            ",
"          @+` 8.#+$+t.                                                                                    _ %+4.B &+            ",
"        *+| =+` 3.-+S                                                                                       *+~.;+c +           ",
"        >+,+E.> '+e.                                                                                        = )+!+~+O.          ",
"      E {+]+^+/+i                                                                                             _  .(+_+;         ",
"      % 8.:+<+c =                                                                                             ++9.[+q }+        ",
"      |+1+!.2+k e.                                                                                              3+4+5+6+=       ",
"      7+8+^ $+g                                                                                                 9+'+0+a+;       ",
"    }.b+c+2+x.U                                                                                                 d+8.e+f+6.      ",
"    - e x g+h+<                                                                                                 @  .j.i+j+      ",
"    k+x.l+m+n+<             o+                          o+    o+                                                a.p+2.n.m+_     ",
"    q+c 3.r.r+              o+                          o+    s+                                                t+u+v+w+x+_     ",
"    - ! x.a y+              o+                          o+                                                      E z+j.A+b+6.    ",
"    - ! `.B+C+              o+o+o+o+o+      s+s+o+      o+    o+    o+      o+    o+s+o+o+  o+o+o+              E D+E+F+G+6.    ",
"    [.H+! I+J+              o+o+    o+    o+      o+    o+    o+    o+      o+    o+    o+o+    o+              }.h+K+L+M+N+    ",
"    O+J.a+I+2.              o+      o+    o+o+o+o+o+    o+    o+    o+      o+    o+      o+    o+              ; P+(.d Q+6.    ",
"    q+R+S+ +T+              o+      o+    o+            o+    o+    o+      o+    o+      o+    o+              q+H+U+1.V+=     ",
"    t+S+{+W+X+              o+      o+    o+            o+    o+    o+    o+o+    o+      o+    o+              Y+`.> l.Q.t.    ",
"    = Z+a o `+_             o+      o+      o+o+o+o+    o+    o+    s+o+o+  o+    o+      o+    o+              g Q+ @.@T.t.    ",
"      +@n $.9 6.                                                                                                e+6+@@#@>       ",
"      Z.E.$@8.%@                                                                                              }.G.&@3.e S       ",
"      ; *@N =@0.                                                                                              & W+m  @) :       ",
"        ( -@B ;@=                                                                                             >@r.H+,@'@S       ",
"        *+)@t !@a.                                                                                          & e ~@^ {@]@        ",
"        ^@/@(@p _@                                                                                          v.^ H j+l._         ",
"          ; c.s.a E                                                                                       + l.:@<@x [@e.        ",
"          = }@f.|@1@                                                                                    _ 2@;.M 3@!.*.          ",
"            *+!.4@G +                                                                                   t+5@a 6@b <+7@          ",
"              8@!._+9@=                                                                               + b+Q.0@&+p.S             ",
"              = a@'+b@w._                                                                           6.c@R+8.N+d@e@              ",
"                f@u .@#.i _                                                                       _ g@$.h@i@j@k@/.              ",
"                  - P.c.#.+@i@                                                                  _ l@#.m@t.n@o@/.                ",
"                    h V+p@q@r@+                                                               . g.f+j _ c+%.t.                  ",
"                      - ` =@B b+= _                                                         [.T.n.s@% t@_._                     ",
"                        t+u@v@w@x@+.q+                                                  = 5.H L.r+; y@z@t.                      ",
"                          = 8@! A@H ! D % =                                         = & m+#.0 e.B@h@%+e.                        ",
"                              f@'.C@{+9 D@m._ a._                             _ + < T.E@n F@t+G@3.H@5.                          ",
"                                I@< '@J@K@u.a+p+6+L@*+& ; 6.: _ _ = E ; & M@N@m.p+w@O@P@N+)+h@e+Q@                              ",
"                                    = R@S@T@U@0 x p.V@e ^ n@W@X@X@y.Y@y j p@~+a+e+Z@`@;+c./@S  #                                ",
"                                        _ 6.u@$+B .#A@j | m@:.+#B @#o 9.##[+$#N.%#! p+&#*.5.                                    ",
"                                            _ E 5.*#8 | =#-#;#u+>#W@,#{+9.8. .#@&#5.S /.                                        ",
"                                                  _ _ E 6.1@'#)#u@!#~#'#3@_ _ 7@7@                                              ",
"                                                                < <                                                             ",
"                                                                                                                                ",
"                                                                                                                                ",
"                                                                                                                                "};
