/* XPM */
static char * helium16_xpm[] = {
"16 16 45 1",
" 	c None",
".	c #55C1F4",
"+	c #80D2F7",
"@	c #95DBF8",
"#	c #91D9F8",
"$	c #8BD7F8",
"%	c #88D5F7",
"&	c #8AD6F7",
"*	c #76CEF6",
"=	c #64C7F5",
"-	c #74CDF6",
";	c #5EC4F5",
">	c #7DD1F7",
",	c #7AD0F6",
"'	c #6ECBF5",
")	c #73CDF6",
"!	c #6DCAF6",
"~	c #8FD8F7",
"{	c #8ED8F7",
"]	c #8CD7F7",
"^	c #85D5F7",
"/	c #94DAF8",
"(	c #67C8F5",
"_	c #7ED1F6",
":	c #87D6F7",
"<	c #82D3F7",
"[	c #FF0000",
"}	c #9CDEF8",
"|	c #80D3F7",
"1	c #84D4F7",
"2	c #91DAF7",
"3	c #54C0F4",
"4	c #71CCF6",
"5	c #91D9F7",
"6	c #61C6F5",
"7	c #92DAF7",
"8	c #6BCAF6",
"9	c #6BC9F6",
"0	c #7ED1F7",
"a	c #5AC2F4",
"b	c #70CCF5",
"c	c #9BDEF8",
"d	c #A1DFF8",
"e	c #99DDF8",
"f	c #5AC3F4",
"                ",
"    .+@#$%&     ",
"   *#=     -;   ",
"  >,        ')  ",
" !>          ~  ",
" {            ] ",
" ^            / ",
"(_            : ",
" <     [      + ",
" }            @ ",
" @           ;| ",
"  1          23 ",
"  4@        5=  ",
"   678    90a   ",
"     bcde&f     ",
"                "};
